ISO-10303-21;
HEADER;
/* Generated by software containing ST-Developer
 * from STEP Tools, Inc. (www.steptools.com) 
 */

FILE_DESCRIPTION(
/* description */ (''),
/* implementation_level */ '2;1');

FILE_NAME(
/* name */ 'Bush.stp',
/* time_stamp */ '2026-02-11T16:40:45+03:00',
/* author */ ('EV-TECH'),
/* organization */ (''),
/* preprocessor_version */ 'ST-DEVELOPER v20.1',
/* originating_system */ 'Autodesk Inventor 2026',
/* authorisation */ '');

FILE_SCHEMA (('AUTOMOTIVE_DESIGN { 1 0 10303 214 3 1 1 }'));
ENDSEC;

DATA;
#10=MECHANICAL_DESIGN_GEOMETRIC_PRESENTATION_REPRESENTATION('',(#13),#749);
#11=SHAPE_REPRESENTATION_RELATIONSHIP('SRR','None',#756,#12);
#12=ADVANCED_BREP_SHAPE_REPRESENTATION('',(#14),#748);
#13=STYLED_ITEM('',(#765),#14);
#14=MANIFOLD_SOLID_BREP('\X2\04220432043504400434043E0435\X0\ \X2\04420435043B043E\X0\1',
#424);
#15=FACE_BOUND('',#74,.T.);
#16=FACE_BOUND('',#84,.T.);
#17=FACE_BOUND('',#85,.T.);
#18=FACE_BOUND('',#86,.T.);
#19=PLANE('',#450);
#20=PLANE('',#454);
#21=PLANE('',#458);
#22=PLANE('',#462);
#23=PLANE('',#463);
#24=PLANE('',#469);
#25=PLANE('',#472);
#26=PLANE('',#478);
#27=PLANE('',#482);
#28=PLANE('',#487);
#29=PLANE('',#490);
#30=PLANE('',#491);
#31=PLANE('',#492);
#32=PLANE('',#493);
#33=FACE_OUTER_BOUND('',#58,.T.);
#34=FACE_OUTER_BOUND('',#59,.T.);
#35=FACE_OUTER_BOUND('',#60,.T.);
#36=FACE_OUTER_BOUND('',#61,.T.);
#37=FACE_OUTER_BOUND('',#62,.T.);
#38=FACE_OUTER_BOUND('',#63,.T.);
#39=FACE_OUTER_BOUND('',#64,.T.);
#40=FACE_OUTER_BOUND('',#65,.T.);
#41=FACE_OUTER_BOUND('',#66,.T.);
#42=FACE_OUTER_BOUND('',#67,.T.);
#43=FACE_OUTER_BOUND('',#68,.T.);
#44=FACE_OUTER_BOUND('',#69,.T.);
#45=FACE_OUTER_BOUND('',#70,.T.);
#46=FACE_OUTER_BOUND('',#71,.T.);
#47=FACE_OUTER_BOUND('',#72,.T.);
#48=FACE_OUTER_BOUND('',#73,.T.);
#49=FACE_OUTER_BOUND('',#75,.T.);
#50=FACE_OUTER_BOUND('',#76,.T.);
#51=FACE_OUTER_BOUND('',#77,.T.);
#52=FACE_OUTER_BOUND('',#78,.T.);
#53=FACE_OUTER_BOUND('',#79,.T.);
#54=FACE_OUTER_BOUND('',#80,.T.);
#55=FACE_OUTER_BOUND('',#81,.T.);
#56=FACE_OUTER_BOUND('',#82,.T.);
#57=FACE_OUTER_BOUND('',#83,.T.);
#58=EDGE_LOOP('',(#274,#275,#276,#277));
#59=EDGE_LOOP('',(#278));
#60=EDGE_LOOP('',(#279,#280,#281,#282));
#61=EDGE_LOOP('',(#283));
#62=EDGE_LOOP('',(#284,#285,#286,#287));
#63=EDGE_LOOP('',(#288));
#64=EDGE_LOOP('',(#289,#290,#291,#292));
#65=EDGE_LOOP('',(#293,#294,#295,#296));
#66=EDGE_LOOP('',(#297,#298,#299,#300,#301,#302,#303,#304));
#67=EDGE_LOOP('',(#305,#306,#307,#308));
#68=EDGE_LOOP('',(#309,#310,#311,#312));
#69=EDGE_LOOP('',(#313,#314,#315,#316));
#70=EDGE_LOOP('',(#317,#318,#319,#320));
#71=EDGE_LOOP('',(#321,#322,#323,#324));
#72=EDGE_LOOP('',(#325,#326,#327,#328));
#73=EDGE_LOOP('',(#329,#330,#331,#332,#333,#334,#335,#336));
#74=EDGE_LOOP('',(#337,#338,#339,#340,#341,#342,#343,#344));
#75=EDGE_LOOP('',(#345,#346,#347,#348));
#76=EDGE_LOOP('',(#349,#350,#351,#352));
#77=EDGE_LOOP('',(#353,#354,#355,#356));
#78=EDGE_LOOP('',(#357,#358,#359,#360));
#79=EDGE_LOOP('',(#361,#362,#363,#364));
#80=EDGE_LOOP('',(#365,#366,#367,#368));
#81=EDGE_LOOP('',(#369,#370,#371,#372));
#82=EDGE_LOOP('',(#373,#374,#375,#376));
#83=EDGE_LOOP('',(#377,#378,#379,#380,#381,#382,#383,#384));
#84=EDGE_LOOP('',(#385));
#85=EDGE_LOOP('',(#386));
#86=EDGE_LOOP('',(#387));
#87=LINE('',#630,#122);
#88=LINE('',#637,#123);
#89=LINE('',#644,#124);
#90=LINE('',#652,#125);
#91=LINE('',#655,#126);
#92=LINE('',#658,#127);
#93=LINE('',#660,#128);
#94=LINE('',#661,#129);
#95=LINE('',#664,#130);
#96=LINE('',#668,#131);
#97=LINE('',#672,#132);
#98=LINE('',#676,#133);
#99=LINE('',#680,#134);
#100=LINE('',#681,#135);
#101=LINE('',#684,#136);
#102=LINE('',#687,#137);
#103=LINE('',#689,#138);
#104=LINE('',#692,#139);
#105=LINE('',#699,#140);
#106=LINE('',#702,#141);
#107=LINE('',#705,#142);
#108=LINE('',#709,#143);
#109=LINE('',#713,#144);
#110=LINE('',#716,#145);
#111=LINE('',#717,#146);
#112=LINE('',#720,#147);
#113=LINE('',#721,#148);
#114=LINE('',#725,#149);
#115=LINE('',#730,#150);
#116=LINE('',#731,#151);
#117=LINE('',#734,#152);
#118=LINE('',#735,#153);
#119=LINE('',#739,#154);
#120=LINE('',#742,#155);
#121=LINE('',#744,#156);
#122=VECTOR('',#500,1.1);
#123=VECTOR('',#509,1.1);
#124=VECTOR('',#518,1.1);
#125=VECTOR('',#527,10.);
#126=VECTOR('',#530,10.);
#127=VECTOR('',#533,10.);
#128=VECTOR('',#534,10.);
#129=VECTOR('',#535,10.);
#130=VECTOR('',#538,10.);
#131=VECTOR('',#541,10.);
#132=VECTOR('',#544,10.);
#133=VECTOR('',#549,10.);
#134=VECTOR('',#554,10.);
#135=VECTOR('',#555,10.);
#136=VECTOR('',#558,10.);
#137=VECTOR('',#561,10.);
#138=VECTOR('',#564,10.);
#139=VECTOR('',#567,10.);
#140=VECTOR('',#574,10.);
#141=VECTOR('',#577,10.);
#142=VECTOR('',#580,10.);
#143=VECTOR('',#583,10.);
#144=VECTOR('',#586,10.);
#145=VECTOR('',#589,10.);
#146=VECTOR('',#590,10.);
#147=VECTOR('',#593,10.);
#148=VECTOR('',#594,10.);
#149=VECTOR('',#599,10.);
#150=VECTOR('',#604,10.);
#151=VECTOR('',#605,10.);
#152=VECTOR('',#608,10.);
#153=VECTOR('',#609,10.);
#154=VECTOR('',#614,10.);
#155=VECTOR('',#619,10.);
#156=VECTOR('',#622,10.);
#157=CIRCLE('',#448,1.1);
#158=CIRCLE('',#449,1.1);
#159=CIRCLE('',#452,1.1);
#160=CIRCLE('',#453,1.1);
#161=CIRCLE('',#456,1.1);
#162=CIRCLE('',#457,1.1);
#163=CIRCLE('',#460,0.3);
#164=CIRCLE('',#461,0.3);
#165=CIRCLE('',#464,0.3);
#166=CIRCLE('',#465,0.3);
#167=CIRCLE('',#466,0.3);
#168=CIRCLE('',#468,0.3);
#169=CIRCLE('',#471,0.3);
#170=CIRCLE('',#474,0.3);
#171=CIRCLE('',#476,1.);
#172=CIRCLE('',#477,1.);
#173=CIRCLE('',#479,1.);
#174=CIRCLE('',#480,1.);
#175=CIRCLE('',#481,1.);
#176=CIRCLE('',#484,1.);
#177=CIRCLE('',#486,1.);
#178=CIRCLE('',#489,1.);
#179=VERTEX_POINT('',#627);
#180=VERTEX_POINT('',#629);
#181=VERTEX_POINT('',#634);
#182=VERTEX_POINT('',#636);
#183=VERTEX_POINT('',#641);
#184=VERTEX_POINT('',#643);
#185=VERTEX_POINT('',#648);
#186=VERTEX_POINT('',#649);
#187=VERTEX_POINT('',#651);
#188=VERTEX_POINT('',#653);
#189=VERTEX_POINT('',#657);
#190=VERTEX_POINT('',#659);
#191=VERTEX_POINT('',#663);
#192=VERTEX_POINT('',#665);
#193=VERTEX_POINT('',#667);
#194=VERTEX_POINT('',#669);
#195=VERTEX_POINT('',#671);
#196=VERTEX_POINT('',#675);
#197=VERTEX_POINT('',#679);
#198=VERTEX_POINT('',#683);
#199=VERTEX_POINT('',#685);
#200=VERTEX_POINT('',#691);
#201=VERTEX_POINT('',#695);
#202=VERTEX_POINT('',#696);
#203=VERTEX_POINT('',#698);
#204=VERTEX_POINT('',#700);
#205=VERTEX_POINT('',#704);
#206=VERTEX_POINT('',#706);
#207=VERTEX_POINT('',#708);
#208=VERTEX_POINT('',#710);
#209=VERTEX_POINT('',#712);
#210=VERTEX_POINT('',#714);
#211=VERTEX_POINT('',#719);
#212=VERTEX_POINT('',#723);
#213=VERTEX_POINT('',#727);
#214=VERTEX_POINT('',#728);
#215=VERTEX_POINT('',#733);
#216=VERTEX_POINT('',#737);
#217=EDGE_CURVE('',#179,#179,#157,.T.);
#218=EDGE_CURVE('',#179,#180,#87,.T.);
#219=EDGE_CURVE('',#180,#180,#158,.T.);
#220=EDGE_CURVE('',#181,#181,#159,.T.);
#221=EDGE_CURVE('',#181,#182,#88,.T.);
#222=EDGE_CURVE('',#182,#182,#160,.T.);
#223=EDGE_CURVE('',#183,#183,#161,.T.);
#224=EDGE_CURVE('',#183,#184,#89,.T.);
#225=EDGE_CURVE('',#184,#184,#162,.T.);
#226=EDGE_CURVE('',#185,#186,#163,.T.);
#227=EDGE_CURVE('',#186,#187,#90,.T.);
#228=EDGE_CURVE('',#187,#188,#164,.F.);
#229=EDGE_CURVE('',#188,#185,#91,.T.);
#230=EDGE_CURVE('',#189,#186,#92,.T.);
#231=EDGE_CURVE('',#190,#189,#93,.T.);
#232=EDGE_CURVE('',#187,#190,#94,.T.);
#233=EDGE_CURVE('',#185,#191,#95,.T.);
#234=EDGE_CURVE('',#192,#191,#165,.T.);
#235=EDGE_CURVE('',#192,#193,#96,.T.);
#236=EDGE_CURVE('',#194,#193,#166,.T.);
#237=EDGE_CURVE('',#194,#195,#97,.T.);
#238=EDGE_CURVE('',#189,#195,#167,.T.);
#239=EDGE_CURVE('',#195,#196,#98,.T.);
#240=EDGE_CURVE('',#196,#190,#168,.F.);
#241=EDGE_CURVE('',#197,#194,#99,.T.);
#242=EDGE_CURVE('',#196,#197,#100,.T.);
#243=EDGE_CURVE('',#191,#198,#101,.T.);
#244=EDGE_CURVE('',#198,#199,#169,.F.);
#245=EDGE_CURVE('',#199,#192,#102,.T.);
#246=EDGE_CURVE('',#198,#188,#103,.T.);
#247=EDGE_CURVE('',#193,#200,#104,.T.);
#248=EDGE_CURVE('',#200,#197,#170,.F.);
#249=EDGE_CURVE('',#201,#202,#171,.T.);
#250=EDGE_CURVE('',#202,#203,#105,.T.);
#251=EDGE_CURVE('',#203,#204,#172,.T.);
#252=EDGE_CURVE('',#204,#201,#106,.T.);
#253=EDGE_CURVE('',#205,#203,#107,.T.);
#254=EDGE_CURVE('',#206,#205,#173,.T.);
#255=EDGE_CURVE('',#207,#206,#108,.T.);
#256=EDGE_CURVE('',#208,#207,#174,.T.);
#257=EDGE_CURVE('',#209,#208,#109,.T.);
#258=EDGE_CURVE('',#210,#209,#175,.T.);
#259=EDGE_CURVE('',#204,#210,#110,.T.);
#260=EDGE_CURVE('',#200,#199,#111,.T.);
#261=EDGE_CURVE('',#211,#202,#112,.T.);
#262=EDGE_CURVE('',#205,#211,#113,.T.);
#263=EDGE_CURVE('',#211,#212,#176,.T.);
#264=EDGE_CURVE('',#212,#206,#114,.T.);
#265=EDGE_CURVE('',#213,#214,#177,.T.);
#266=EDGE_CURVE('',#214,#210,#115,.T.);
#267=EDGE_CURVE('',#209,#213,#116,.T.);
#268=EDGE_CURVE('',#215,#208,#117,.T.);
#269=EDGE_CURVE('',#213,#215,#118,.T.);
#270=EDGE_CURVE('',#216,#215,#178,.T.);
#271=EDGE_CURVE('',#207,#216,#119,.T.);
#272=EDGE_CURVE('',#216,#212,#120,.T.);
#273=EDGE_CURVE('',#201,#214,#121,.T.);
#274=ORIENTED_EDGE('',*,*,#217,.F.);
#275=ORIENTED_EDGE('',*,*,#218,.T.);
#276=ORIENTED_EDGE('',*,*,#219,.T.);
#277=ORIENTED_EDGE('',*,*,#218,.F.);
#278=ORIENTED_EDGE('',*,*,#219,.F.);
#279=ORIENTED_EDGE('',*,*,#220,.F.);
#280=ORIENTED_EDGE('',*,*,#221,.T.);
#281=ORIENTED_EDGE('',*,*,#222,.T.);
#282=ORIENTED_EDGE('',*,*,#221,.F.);
#283=ORIENTED_EDGE('',*,*,#222,.F.);
#284=ORIENTED_EDGE('',*,*,#223,.F.);
#285=ORIENTED_EDGE('',*,*,#224,.T.);
#286=ORIENTED_EDGE('',*,*,#225,.T.);
#287=ORIENTED_EDGE('',*,*,#224,.F.);
#288=ORIENTED_EDGE('',*,*,#225,.F.);
#289=ORIENTED_EDGE('',*,*,#226,.T.);
#290=ORIENTED_EDGE('',*,*,#227,.T.);
#291=ORIENTED_EDGE('',*,*,#228,.T.);
#292=ORIENTED_EDGE('',*,*,#229,.T.);
#293=ORIENTED_EDGE('',*,*,#227,.F.);
#294=ORIENTED_EDGE('',*,*,#230,.F.);
#295=ORIENTED_EDGE('',*,*,#231,.F.);
#296=ORIENTED_EDGE('',*,*,#232,.F.);
#297=ORIENTED_EDGE('',*,*,#226,.F.);
#298=ORIENTED_EDGE('',*,*,#233,.T.);
#299=ORIENTED_EDGE('',*,*,#234,.F.);
#300=ORIENTED_EDGE('',*,*,#235,.T.);
#301=ORIENTED_EDGE('',*,*,#236,.F.);
#302=ORIENTED_EDGE('',*,*,#237,.T.);
#303=ORIENTED_EDGE('',*,*,#238,.F.);
#304=ORIENTED_EDGE('',*,*,#230,.T.);
#305=ORIENTED_EDGE('',*,*,#238,.T.);
#306=ORIENTED_EDGE('',*,*,#239,.T.);
#307=ORIENTED_EDGE('',*,*,#240,.T.);
#308=ORIENTED_EDGE('',*,*,#231,.T.);
#309=ORIENTED_EDGE('',*,*,#239,.F.);
#310=ORIENTED_EDGE('',*,*,#237,.F.);
#311=ORIENTED_EDGE('',*,*,#241,.F.);
#312=ORIENTED_EDGE('',*,*,#242,.F.);
#313=ORIENTED_EDGE('',*,*,#234,.T.);
#314=ORIENTED_EDGE('',*,*,#243,.T.);
#315=ORIENTED_EDGE('',*,*,#244,.T.);
#316=ORIENTED_EDGE('',*,*,#245,.T.);
#317=ORIENTED_EDGE('',*,*,#229,.F.);
#318=ORIENTED_EDGE('',*,*,#246,.F.);
#319=ORIENTED_EDGE('',*,*,#243,.F.);
#320=ORIENTED_EDGE('',*,*,#233,.F.);
#321=ORIENTED_EDGE('',*,*,#236,.T.);
#322=ORIENTED_EDGE('',*,*,#247,.T.);
#323=ORIENTED_EDGE('',*,*,#248,.T.);
#324=ORIENTED_EDGE('',*,*,#241,.T.);
#325=ORIENTED_EDGE('',*,*,#249,.T.);
#326=ORIENTED_EDGE('',*,*,#250,.T.);
#327=ORIENTED_EDGE('',*,*,#251,.T.);
#328=ORIENTED_EDGE('',*,*,#252,.T.);
#329=ORIENTED_EDGE('',*,*,#251,.F.);
#330=ORIENTED_EDGE('',*,*,#253,.F.);
#331=ORIENTED_EDGE('',*,*,#254,.F.);
#332=ORIENTED_EDGE('',*,*,#255,.F.);
#333=ORIENTED_EDGE('',*,*,#256,.F.);
#334=ORIENTED_EDGE('',*,*,#257,.F.);
#335=ORIENTED_EDGE('',*,*,#258,.F.);
#336=ORIENTED_EDGE('',*,*,#259,.F.);
#337=ORIENTED_EDGE('',*,*,#246,.T.);
#338=ORIENTED_EDGE('',*,*,#228,.F.);
#339=ORIENTED_EDGE('',*,*,#232,.T.);
#340=ORIENTED_EDGE('',*,*,#240,.F.);
#341=ORIENTED_EDGE('',*,*,#242,.T.);
#342=ORIENTED_EDGE('',*,*,#248,.F.);
#343=ORIENTED_EDGE('',*,*,#260,.T.);
#344=ORIENTED_EDGE('',*,*,#244,.F.);
#345=ORIENTED_EDGE('',*,*,#250,.F.);
#346=ORIENTED_EDGE('',*,*,#261,.F.);
#347=ORIENTED_EDGE('',*,*,#262,.F.);
#348=ORIENTED_EDGE('',*,*,#253,.T.);
#349=ORIENTED_EDGE('',*,*,#263,.T.);
#350=ORIENTED_EDGE('',*,*,#264,.T.);
#351=ORIENTED_EDGE('',*,*,#254,.T.);
#352=ORIENTED_EDGE('',*,*,#262,.T.);
#353=ORIENTED_EDGE('',*,*,#265,.T.);
#354=ORIENTED_EDGE('',*,*,#266,.T.);
#355=ORIENTED_EDGE('',*,*,#258,.T.);
#356=ORIENTED_EDGE('',*,*,#267,.T.);
#357=ORIENTED_EDGE('',*,*,#267,.F.);
#358=ORIENTED_EDGE('',*,*,#257,.T.);
#359=ORIENTED_EDGE('',*,*,#268,.F.);
#360=ORIENTED_EDGE('',*,*,#269,.F.);
#361=ORIENTED_EDGE('',*,*,#270,.T.);
#362=ORIENTED_EDGE('',*,*,#268,.T.);
#363=ORIENTED_EDGE('',*,*,#256,.T.);
#364=ORIENTED_EDGE('',*,*,#271,.T.);
#365=ORIENTED_EDGE('',*,*,#245,.F.);
#366=ORIENTED_EDGE('',*,*,#260,.F.);
#367=ORIENTED_EDGE('',*,*,#247,.F.);
#368=ORIENTED_EDGE('',*,*,#235,.F.);
#369=ORIENTED_EDGE('',*,*,#264,.F.);
#370=ORIENTED_EDGE('',*,*,#272,.F.);
#371=ORIENTED_EDGE('',*,*,#271,.F.);
#372=ORIENTED_EDGE('',*,*,#255,.T.);
#373=ORIENTED_EDGE('',*,*,#252,.F.);
#374=ORIENTED_EDGE('',*,*,#259,.T.);
#375=ORIENTED_EDGE('',*,*,#266,.F.);
#376=ORIENTED_EDGE('',*,*,#273,.F.);
#377=ORIENTED_EDGE('',*,*,#249,.F.);
#378=ORIENTED_EDGE('',*,*,#273,.T.);
#379=ORIENTED_EDGE('',*,*,#265,.F.);
#380=ORIENTED_EDGE('',*,*,#269,.T.);
#381=ORIENTED_EDGE('',*,*,#270,.F.);
#382=ORIENTED_EDGE('',*,*,#272,.T.);
#383=ORIENTED_EDGE('',*,*,#263,.F.);
#384=ORIENTED_EDGE('',*,*,#261,.T.);
#385=ORIENTED_EDGE('',*,*,#217,.T.);
#386=ORIENTED_EDGE('',*,*,#220,.T.);
#387=ORIENTED_EDGE('',*,*,#223,.T.);
#388=CYLINDRICAL_SURFACE('',#447,1.1);
#389=CYLINDRICAL_SURFACE('',#451,1.1);
#390=CYLINDRICAL_SURFACE('',#455,1.1);
#391=CYLINDRICAL_SURFACE('',#459,0.3);
#392=CYLINDRICAL_SURFACE('',#467,0.3);
#393=CYLINDRICAL_SURFACE('',#470,0.3);
#394=CYLINDRICAL_SURFACE('',#473,0.3);
#395=CYLINDRICAL_SURFACE('',#475,1.);
#396=CYLINDRICAL_SURFACE('',#483,1.);
#397=CYLINDRICAL_SURFACE('',#485,1.);
#398=CYLINDRICAL_SURFACE('',#488,1.);
#399=ADVANCED_FACE('',(#33),#388,.F.);
#400=ADVANCED_FACE('',(#34),#19,.T.);
#401=ADVANCED_FACE('',(#35),#389,.F.);
#402=ADVANCED_FACE('',(#36),#20,.T.);
#403=ADVANCED_FACE('',(#37),#390,.F.);
#404=ADVANCED_FACE('',(#38),#21,.T.);
#405=ADVANCED_FACE('',(#39),#391,.T.);
#406=ADVANCED_FACE('',(#40),#22,.T.);
#407=ADVANCED_FACE('',(#41),#23,.T.);
#408=ADVANCED_FACE('',(#42),#392,.T.);
#409=ADVANCED_FACE('',(#43),#24,.T.);
#410=ADVANCED_FACE('',(#44),#393,.T.);
#411=ADVANCED_FACE('',(#45),#25,.T.);
#412=ADVANCED_FACE('',(#46),#394,.T.);
#413=ADVANCED_FACE('',(#47),#395,.T.);
#414=ADVANCED_FACE('',(#48,#15),#26,.F.);
#415=ADVANCED_FACE('',(#49),#27,.T.);
#416=ADVANCED_FACE('',(#50),#396,.T.);
#417=ADVANCED_FACE('',(#51),#397,.T.);
#418=ADVANCED_FACE('',(#52),#28,.T.);
#419=ADVANCED_FACE('',(#53),#398,.T.);
#420=ADVANCED_FACE('',(#54),#29,.T.);
#421=ADVANCED_FACE('',(#55),#30,.T.);
#422=ADVANCED_FACE('',(#56),#31,.T.);
#423=ADVANCED_FACE('',(#57,#16,#17,#18),#32,.T.);
#424=CLOSED_SHELL('',(#399,#400,#401,#402,#403,#404,#405,#406,#407,#408,
#409,#410,#411,#412,#413,#414,#415,#416,#417,#418,#419,#420,#421,#422,#423));
#425=DERIVED_UNIT_ELEMENT(#428,1.);
#426=DERIVED_UNIT_ELEMENT(#751,-3.);
#427=DIMENSIONAL_EXPONENTS(0.,1.,0.,0.,0.,0.,0.);
#428=(
CONVERSION_BASED_UNIT('gram',#430)
MASS_UNIT()
NAMED_UNIT(#427)
);
#429=(
MASS_UNIT()
NAMED_UNIT(*)
SI_UNIT(.KILO.,.GRAM.)
);
#430=MASS_MEASURE_WITH_UNIT(MASS_MEASURE(0.001),#429);
#431=DERIVED_UNIT((#425,#426));
#432=MEASURE_REPRESENTATION_ITEM('density measure',
POSITIVE_RATIO_MEASURE(8.94),#431);
#433=PROPERTY_DEFINITION_REPRESENTATION(#438,#435);
#434=PROPERTY_DEFINITION_REPRESENTATION(#439,#436);
#435=REPRESENTATION('material name',(#437),#748);
#436=REPRESENTATION('density',(#432),#748);
#437=DESCRIPTIVE_REPRESENTATION_ITEM('\X2\041C04350434044C\X0\',
'\X2\041C04350434044C\X0\');
#438=PROPERTY_DEFINITION('material property','material name',#758);
#439=PROPERTY_DEFINITION('material property','density of part',#758);
#440=DATE_TIME_ROLE('creation_date');
#441=APPLIED_DATE_AND_TIME_ASSIGNMENT(#442,#440,(#758));
#442=DATE_AND_TIME(#443,#444);
#443=CALENDAR_DATE(2026,11,2);
#444=LOCAL_TIME(0,0,0.,#445);
#445=COORDINATED_UNIVERSAL_TIME_OFFSET(0,0,.BEHIND.);
#446=AXIS2_PLACEMENT_3D('',#625,#494,#495);
#447=AXIS2_PLACEMENT_3D('',#626,#496,#497);
#448=AXIS2_PLACEMENT_3D('',#628,#498,#499);
#449=AXIS2_PLACEMENT_3D('',#631,#501,#502);
#450=AXIS2_PLACEMENT_3D('',#632,#503,#504);
#451=AXIS2_PLACEMENT_3D('',#633,#505,#506);
#452=AXIS2_PLACEMENT_3D('',#635,#507,#508);
#453=AXIS2_PLACEMENT_3D('',#638,#510,#511);
#454=AXIS2_PLACEMENT_3D('',#639,#512,#513);
#455=AXIS2_PLACEMENT_3D('',#640,#514,#515);
#456=AXIS2_PLACEMENT_3D('',#642,#516,#517);
#457=AXIS2_PLACEMENT_3D('',#645,#519,#520);
#458=AXIS2_PLACEMENT_3D('',#646,#521,#522);
#459=AXIS2_PLACEMENT_3D('',#647,#523,#524);
#460=AXIS2_PLACEMENT_3D('',#650,#525,#526);
#461=AXIS2_PLACEMENT_3D('',#654,#528,#529);
#462=AXIS2_PLACEMENT_3D('',#656,#531,#532);
#463=AXIS2_PLACEMENT_3D('',#662,#536,#537);
#464=AXIS2_PLACEMENT_3D('',#666,#539,#540);
#465=AXIS2_PLACEMENT_3D('',#670,#542,#543);
#466=AXIS2_PLACEMENT_3D('',#673,#545,#546);
#467=AXIS2_PLACEMENT_3D('',#674,#547,#548);
#468=AXIS2_PLACEMENT_3D('',#677,#550,#551);
#469=AXIS2_PLACEMENT_3D('',#678,#552,#553);
#470=AXIS2_PLACEMENT_3D('',#682,#556,#557);
#471=AXIS2_PLACEMENT_3D('',#686,#559,#560);
#472=AXIS2_PLACEMENT_3D('',#688,#562,#563);
#473=AXIS2_PLACEMENT_3D('',#690,#565,#566);
#474=AXIS2_PLACEMENT_3D('',#693,#568,#569);
#475=AXIS2_PLACEMENT_3D('',#694,#570,#571);
#476=AXIS2_PLACEMENT_3D('',#697,#572,#573);
#477=AXIS2_PLACEMENT_3D('',#701,#575,#576);
#478=AXIS2_PLACEMENT_3D('',#703,#578,#579);
#479=AXIS2_PLACEMENT_3D('',#707,#581,#582);
#480=AXIS2_PLACEMENT_3D('',#711,#584,#585);
#481=AXIS2_PLACEMENT_3D('',#715,#587,#588);
#482=AXIS2_PLACEMENT_3D('',#718,#591,#592);
#483=AXIS2_PLACEMENT_3D('',#722,#595,#596);
#484=AXIS2_PLACEMENT_3D('',#724,#597,#598);
#485=AXIS2_PLACEMENT_3D('',#726,#600,#601);
#486=AXIS2_PLACEMENT_3D('',#729,#602,#603);
#487=AXIS2_PLACEMENT_3D('',#732,#606,#607);
#488=AXIS2_PLACEMENT_3D('',#736,#610,#611);
#489=AXIS2_PLACEMENT_3D('',#738,#612,#613);
#490=AXIS2_PLACEMENT_3D('',#740,#615,#616);
#491=AXIS2_PLACEMENT_3D('',#741,#617,#618);
#492=AXIS2_PLACEMENT_3D('',#743,#620,#621);
#493=AXIS2_PLACEMENT_3D('',#745,#623,#624);
#494=DIRECTION('axis',(0.,0.,1.));
#495=DIRECTION('refdir',(1.,0.,0.));
#496=DIRECTION('center_axis',(0.,-1.,0.));
#497=DIRECTION('ref_axis',(1.,0.,0.));
#498=DIRECTION('center_axis',(0.,-1.,0.));
#499=DIRECTION('ref_axis',(1.,0.,0.));
#500=DIRECTION('',(0.,-1.,0.));
#501=DIRECTION('center_axis',(0.,-1.,0.));
#502=DIRECTION('ref_axis',(1.,0.,0.));
#503=DIRECTION('center_axis',(0.,1.,0.));
#504=DIRECTION('ref_axis',(0.,0.,1.));
#505=DIRECTION('center_axis',(0.,-1.,0.));
#506=DIRECTION('ref_axis',(1.,0.,0.));
#507=DIRECTION('center_axis',(0.,-1.,0.));
#508=DIRECTION('ref_axis',(1.,0.,0.));
#509=DIRECTION('',(0.,-1.,0.));
#510=DIRECTION('center_axis',(0.,-1.,0.));
#511=DIRECTION('ref_axis',(1.,0.,0.));
#512=DIRECTION('center_axis',(0.,1.,0.));
#513=DIRECTION('ref_axis',(0.,0.,1.));
#514=DIRECTION('center_axis',(0.,-1.,0.));
#515=DIRECTION('ref_axis',(1.,0.,0.));
#516=DIRECTION('center_axis',(0.,-1.,0.));
#517=DIRECTION('ref_axis',(1.,0.,0.));
#518=DIRECTION('',(0.,-1.,0.));
#519=DIRECTION('center_axis',(0.,-1.,0.));
#520=DIRECTION('ref_axis',(1.,0.,0.));
#521=DIRECTION('center_axis',(0.,1.,0.));
#522=DIRECTION('ref_axis',(0.,0.,1.));
#523=DIRECTION('center_axis',(0.,-1.,0.));
#524=DIRECTION('ref_axis',(-0.707106781186547,0.,0.707106781186547));
#525=DIRECTION('center_axis',(0.,1.,0.));
#526=DIRECTION('ref_axis',(-0.707106781186547,0.,0.707106781186547));
#527=DIRECTION('',(0.,1.,0.));
#528=DIRECTION('center_axis',(0.,1.,0.));
#529=DIRECTION('ref_axis',(-0.707106781186547,0.,0.707106781186547));
#530=DIRECTION('',(0.,-1.,0.));
#531=DIRECTION('center_axis',(0.,0.,1.));
#532=DIRECTION('ref_axis',(-1.,0.,0.));
#533=DIRECTION('',(-1.,0.,0.));
#534=DIRECTION('',(0.,-1.,0.));
#535=DIRECTION('',(1.,0.,0.));
#536=DIRECTION('center_axis',(0.,-1.,0.));
#537=DIRECTION('ref_axis',(0.,0.,-1.));
#538=DIRECTION('',(0.,0.,-1.));
#539=DIRECTION('center_axis',(0.,1.,0.));
#540=DIRECTION('ref_axis',(-0.707106781186545,0.,-0.70710678118655));
#541=DIRECTION('',(1.,0.,0.));
#542=DIRECTION('center_axis',(0.,1.,0.));
#543=DIRECTION('ref_axis',(0.707106781186555,0.,-0.70710678118654));
#544=DIRECTION('',(0.,0.,1.));
#545=DIRECTION('center_axis',(0.,1.,0.));
#546=DIRECTION('ref_axis',(0.707106781186547,0.,0.707106781186548));
#547=DIRECTION('center_axis',(0.,-1.,0.));
#548=DIRECTION('ref_axis',(0.707106781186547,0.,0.707106781186548));
#549=DIRECTION('',(0.,1.,0.));
#550=DIRECTION('center_axis',(0.,1.,0.));
#551=DIRECTION('ref_axis',(0.707106781186547,0.,0.707106781186548));
#552=DIRECTION('center_axis',(1.,0.,0.));
#553=DIRECTION('ref_axis',(0.,0.,1.));
#554=DIRECTION('',(0.,-1.,0.));
#555=DIRECTION('',(0.,0.,-1.));
#556=DIRECTION('center_axis',(0.,-1.,0.));
#557=DIRECTION('ref_axis',(-0.707106781186545,0.,-0.70710678118655));
#558=DIRECTION('',(0.,1.,0.));
#559=DIRECTION('center_axis',(0.,1.,0.));
#560=DIRECTION('ref_axis',(-0.707106781186545,0.,-0.70710678118655));
#561=DIRECTION('',(0.,-1.,0.));
#562=DIRECTION('center_axis',(-1.,0.,0.));
#563=DIRECTION('ref_axis',(0.,0.,-1.));
#564=DIRECTION('',(0.,0.,1.));
#565=DIRECTION('center_axis',(0.,-1.,0.));
#566=DIRECTION('ref_axis',(0.707106781186555,0.,-0.70710678118654));
#567=DIRECTION('',(0.,1.,0.));
#568=DIRECTION('center_axis',(0.,1.,0.));
#569=DIRECTION('ref_axis',(0.707106781186555,0.,-0.70710678118654));
#570=DIRECTION('center_axis',(0.,1.,0.));
#571=DIRECTION('ref_axis',(-0.707106781186549,0.,-0.707106781186546));
#572=DIRECTION('center_axis',(0.,-1.,0.));
#573=DIRECTION('ref_axis',(-0.707106781186549,0.,-0.707106781186546));
#574=DIRECTION('',(0.,-1.,0.));
#575=DIRECTION('center_axis',(0.,1.,0.));
#576=DIRECTION('ref_axis',(-0.707106781186549,0.,-0.707106781186546));
#577=DIRECTION('',(0.,1.,0.));
#578=DIRECTION('center_axis',(0.,1.,0.));
#579=DIRECTION('ref_axis',(0.,0.,1.));
#580=DIRECTION('',(-1.,0.,0.));
#581=DIRECTION('center_axis',(0.,1.,0.));
#582=DIRECTION('ref_axis',(0.707106781186546,0.,-0.707106781186549));
#583=DIRECTION('',(-1.87350135405495E-16,0.,-1.));
#584=DIRECTION('center_axis',(0.,1.,0.));
#585=DIRECTION('ref_axis',(0.707106781186548,0.,0.707106781186547));
#586=DIRECTION('',(1.,0.,0.));
#587=DIRECTION('center_axis',(0.,1.,0.));
#588=DIRECTION('ref_axis',(-0.707106781186547,0.,0.707106781186548));
#589=DIRECTION('',(5.55111512312578E-17,0.,1.));
#590=DIRECTION('',(-1.,0.,0.));
#591=DIRECTION('center_axis',(0.,0.,-1.));
#592=DIRECTION('ref_axis',(-1.,0.,0.));
#593=DIRECTION('',(-1.,0.,0.));
#594=DIRECTION('',(0.,1.,0.));
#595=DIRECTION('center_axis',(0.,1.,0.));
#596=DIRECTION('ref_axis',(0.707106781186546,0.,-0.707106781186549));
#597=DIRECTION('center_axis',(0.,-1.,0.));
#598=DIRECTION('ref_axis',(0.707106781186546,0.,-0.707106781186549));
#599=DIRECTION('',(0.,-1.,0.));
#600=DIRECTION('center_axis',(0.,1.,0.));
#601=DIRECTION('ref_axis',(-0.707106781186547,0.,0.707106781186548));
#602=DIRECTION('center_axis',(0.,-1.,0.));
#603=DIRECTION('ref_axis',(-0.707106781186547,0.,0.707106781186548));
#604=DIRECTION('',(0.,-1.,0.));
#605=DIRECTION('',(0.,1.,0.));
#606=DIRECTION('center_axis',(0.,0.,1.));
#607=DIRECTION('ref_axis',(1.,0.,0.));
#608=DIRECTION('',(0.,-1.,0.));
#609=DIRECTION('',(1.,0.,0.));
#610=DIRECTION('center_axis',(0.,1.,0.));
#611=DIRECTION('ref_axis',(0.707106781186548,0.,0.707106781186547));
#612=DIRECTION('center_axis',(0.,-1.,0.));
#613=DIRECTION('ref_axis',(0.707106781186548,0.,0.707106781186547));
#614=DIRECTION('',(0.,1.,0.));
#615=DIRECTION('center_axis',(0.,0.,-1.));
#616=DIRECTION('ref_axis',(1.,0.,0.));
#617=DIRECTION('center_axis',(1.,0.,-1.87350135405495E-16));
#618=DIRECTION('ref_axis',(-1.87350135405495E-16,0.,-1.));
#619=DIRECTION('',(-1.87350135405495E-16,0.,-1.));
#620=DIRECTION('center_axis',(-1.,0.,5.55111512312578E-17));
#621=DIRECTION('ref_axis',(5.55111512312578E-17,0.,1.));
#622=DIRECTION('',(5.55111512312578E-17,0.,1.));
#623=DIRECTION('center_axis',(0.,1.,0.));
#624=DIRECTION('ref_axis',(0.,0.,1.));
#625=CARTESIAN_POINT('',(0.,0.,0.));
#626=CARTESIAN_POINT('Origin',(-1.50000000000001,6.,-30.));
#627=CARTESIAN_POINT('',(-2.60000000000001,6.,-30.));
#628=CARTESIAN_POINT('Origin',(-1.50000000000001,6.,-30.));
#629=CARTESIAN_POINT('',(-2.60000000000001,2.,-30.));
#630=CARTESIAN_POINT('',(-2.60000000000001,6.,-30.));
#631=CARTESIAN_POINT('Origin',(-1.50000000000001,2.,-30.));
#632=CARTESIAN_POINT('Origin',(-1.50000000000001,2.,-30.));
#633=CARTESIAN_POINT('Origin',(-1.5,6.,-20.));
#634=CARTESIAN_POINT('',(-2.6,6.,-20.));
#635=CARTESIAN_POINT('Origin',(-1.5,6.,-20.));
#636=CARTESIAN_POINT('',(-2.6,2.,-20.));
#637=CARTESIAN_POINT('',(-2.6,6.,-20.));
#638=CARTESIAN_POINT('Origin',(-1.5,2.,-20.));
#639=CARTESIAN_POINT('Origin',(-1.5,2.,-20.));
#640=CARTESIAN_POINT('Origin',(-1.5,6.,-10.));
#641=CARTESIAN_POINT('',(-2.6,6.,-10.));
#642=CARTESIAN_POINT('Origin',(-1.5,6.,-10.));
#643=CARTESIAN_POINT('',(-2.6,2.,-10.));
#644=CARTESIAN_POINT('',(-2.6,6.,-10.));
#645=CARTESIAN_POINT('Origin',(-1.5,2.,-10.));
#646=CARTESIAN_POINT('Origin',(-1.5,2.,-10.));
#647=CARTESIAN_POINT('Origin',(-1.7,0.,-5.3));
#648=CARTESIAN_POINT('',(-2.,-1.,-5.3));
#649=CARTESIAN_POINT('',(-1.7,-1.,-5.));
#650=CARTESIAN_POINT('Origin',(-1.7,-1.,-5.3));
#651=CARTESIAN_POINT('',(-1.7,0.,-5.));
#652=CARTESIAN_POINT('',(-1.7,0.,-5.));
#653=CARTESIAN_POINT('',(-2.,0.,-5.3));
#654=CARTESIAN_POINT('Origin',(-1.7,0.,-5.3));
#655=CARTESIAN_POINT('',(-2.,0.,-5.3));
#656=CARTESIAN_POINT('Origin',(-1.00000000000001,0.,-5.));
#657=CARTESIAN_POINT('',(-1.30000000000001,-1.,-5.));
#658=CARTESIAN_POINT('',(-1.00000000000001,-1.,-5.));
#659=CARTESIAN_POINT('',(-1.30000000000001,0.,-5.));
#660=CARTESIAN_POINT('',(-1.30000000000001,0.,-5.));
#661=CARTESIAN_POINT('',(-1.25,0.,-5.));
#662=CARTESIAN_POINT('Origin',(-1.5,-1.,-20.));
#663=CARTESIAN_POINT('',(-2.,-1.,-34.7));
#664=CARTESIAN_POINT('',(-2.,-1.,-5.));
#665=CARTESIAN_POINT('',(-1.7,-1.,-35.));
#666=CARTESIAN_POINT('Origin',(-1.7,-1.,-34.7));
#667=CARTESIAN_POINT('',(-1.30000000000001,-1.,-35.));
#668=CARTESIAN_POINT('',(-2.,-1.,-35.));
#669=CARTESIAN_POINT('',(-1.00000000000001,-1.,-34.7));
#670=CARTESIAN_POINT('Origin',(-1.30000000000001,-1.,-34.7));
#671=CARTESIAN_POINT('',(-1.00000000000001,-1.,-5.3));
#672=CARTESIAN_POINT('',(-1.00000000000001,-1.,-35.));
#673=CARTESIAN_POINT('Origin',(-1.30000000000001,-1.,-5.3));
#674=CARTESIAN_POINT('Origin',(-1.30000000000001,0.,-5.3));
#675=CARTESIAN_POINT('',(-1.00000000000001,0.,-5.3));
#676=CARTESIAN_POINT('',(-1.00000000000001,0.,-5.3));
#677=CARTESIAN_POINT('Origin',(-1.30000000000001,0.,-5.3));
#678=CARTESIAN_POINT('Origin',(-1.00000000000001,0.,-35.));
#679=CARTESIAN_POINT('',(-1.00000000000001,0.,-34.7));
#680=CARTESIAN_POINT('',(-1.00000000000001,0.,-34.7));
#681=CARTESIAN_POINT('',(-1.00000000000001,0.,-27.5));
#682=CARTESIAN_POINT('Origin',(-1.7,0.,-34.7));
#683=CARTESIAN_POINT('',(-2.,0.,-34.7));
#684=CARTESIAN_POINT('',(-2.,0.,-34.7));
#685=CARTESIAN_POINT('',(-1.7,0.,-35.));
#686=CARTESIAN_POINT('Origin',(-1.7,0.,-34.7));
#687=CARTESIAN_POINT('',(-1.7,0.,-35.));
#688=CARTESIAN_POINT('Origin',(-2.,0.,-5.));
#689=CARTESIAN_POINT('',(-2.,0.,-12.5));
#690=CARTESIAN_POINT('Origin',(-1.30000000000001,0.,-34.7));
#691=CARTESIAN_POINT('',(-1.30000000000001,0.,-35.));
#692=CARTESIAN_POINT('',(-1.30000000000001,0.,-35.));
#693=CARTESIAN_POINT('Origin',(-1.30000000000001,0.,-34.7));
#694=CARTESIAN_POINT('Origin',(-2.,0.,-39.));
#695=CARTESIAN_POINT('',(-3.,6.,-39.));
#696=CARTESIAN_POINT('',(-2.,6.,-40.));
#697=CARTESIAN_POINT('Origin',(-2.,6.,-39.));
#698=CARTESIAN_POINT('',(-2.,0.,-40.));
#699=CARTESIAN_POINT('',(-2.,0.,-40.));
#700=CARTESIAN_POINT('',(-3.,0.,-39.));
#701=CARTESIAN_POINT('Origin',(-2.,0.,-39.));
#702=CARTESIAN_POINT('',(-3.,0.,-39.));
#703=CARTESIAN_POINT('Origin',(-1.5,0.,-20.));
#704=CARTESIAN_POINT('',(-1.00000000000001,0.,-40.));
#705=CARTESIAN_POINT('',(-7.7715611723761E-15,0.,-40.));
#706=CARTESIAN_POINT('',(-7.30665528081431E-15,0.,-39.));
#707=CARTESIAN_POINT('Origin',(-1.00000000000001,0.,-39.));
#708=CARTESIAN_POINT('',(-1.87350135405495E-16,0.,-1.));
#709=CARTESIAN_POINT('',(0.,0.,0.));
#710=CARTESIAN_POINT('',(-1.,0.,0.));
#711=CARTESIAN_POINT('Origin',(-1.,0.,-1.));
#712=CARTESIAN_POINT('',(-2.,0.,0.));
#713=CARTESIAN_POINT('',(-3.,0.,0.));
#714=CARTESIAN_POINT('',(-3.,0.,-1.));
#715=CARTESIAN_POINT('Origin',(-2.,0.,-1.));
#716=CARTESIAN_POINT('',(-3.,0.,-40.));
#717=CARTESIAN_POINT('',(-1.75,0.,-35.));
#718=CARTESIAN_POINT('Origin',(-7.49400541621981E-15,0.,-40.));
#719=CARTESIAN_POINT('',(-1.00000000000001,6.,-40.));
#720=CARTESIAN_POINT('',(-7.7715611723761E-15,6.,-40.));
#721=CARTESIAN_POINT('',(-1.00000000000001,0.,-40.));
#722=CARTESIAN_POINT('Origin',(-1.00000000000001,0.,-39.));
#723=CARTESIAN_POINT('',(-7.30665528081431E-15,6.,-39.));
#724=CARTESIAN_POINT('Origin',(-1.00000000000001,6.,-39.));
#725=CARTESIAN_POINT('',(-7.35522753814166E-15,0.,-39.));
#726=CARTESIAN_POINT('Origin',(-2.,0.,-1.));
#727=CARTESIAN_POINT('',(-2.,6.,0.));
#728=CARTESIAN_POINT('',(-3.,6.,-1.));
#729=CARTESIAN_POINT('Origin',(-2.,6.,-1.));
#730=CARTESIAN_POINT('',(-3.,0.,-1.));
#731=CARTESIAN_POINT('',(-2.,0.,0.));
#732=CARTESIAN_POINT('Origin',(-3.,0.,0.));
#733=CARTESIAN_POINT('',(-1.,6.,0.));
#734=CARTESIAN_POINT('',(-1.,0.,0.));
#735=CARTESIAN_POINT('',(-3.,6.,0.));
#736=CARTESIAN_POINT('Origin',(-1.,0.,-1.));
#737=CARTESIAN_POINT('',(-1.87350135405495E-16,6.,-1.));
#738=CARTESIAN_POINT('Origin',(-1.,6.,-1.));
#739=CARTESIAN_POINT('',(-1.38777878078145E-16,0.,-1.));
#740=CARTESIAN_POINT('Origin',(-2.,0.,-35.));
#741=CARTESIAN_POINT('Origin',(0.,0.,0.));
#742=CARTESIAN_POINT('',(0.,6.,0.));
#743=CARTESIAN_POINT('Origin',(-3.,0.,-40.));
#744=CARTESIAN_POINT('',(-3.,6.,-40.));
#745=CARTESIAN_POINT('Origin',(-1.5,6.,-20.));
#746=UNCERTAINTY_MEASURE_WITH_UNIT(LENGTH_MEASURE(0.01),#750,
'DISTANCE_ACCURACY_VALUE',
'Maximum model space distance between geometric entities at asserted c
onnectivities');
#747=UNCERTAINTY_MEASURE_WITH_UNIT(LENGTH_MEASURE(0.01),#750,
'DISTANCE_ACCURACY_VALUE',
'Maximum model space distance between geometric entities at asserted c
onnectivities');
#748=(
GEOMETRIC_REPRESENTATION_CONTEXT(3)
GLOBAL_UNCERTAINTY_ASSIGNED_CONTEXT((#746))
GLOBAL_UNIT_ASSIGNED_CONTEXT((#750,#752,#753))
REPRESENTATION_CONTEXT('','3D')
);
#749=(
GEOMETRIC_REPRESENTATION_CONTEXT(3)
GLOBAL_UNCERTAINTY_ASSIGNED_CONTEXT((#747))
GLOBAL_UNIT_ASSIGNED_CONTEXT((#750,#752,#753))
REPRESENTATION_CONTEXT('','3D')
);
#750=(
LENGTH_UNIT()
NAMED_UNIT(*)
SI_UNIT(.MILLI.,.METRE.)
);
#751=(
LENGTH_UNIT()
NAMED_UNIT(*)
SI_UNIT(.CENTI.,.METRE.)
);
#752=(
NAMED_UNIT(*)
PLANE_ANGLE_UNIT()
SI_UNIT($,.RADIAN.)
);
#753=(
NAMED_UNIT(*)
SI_UNIT($,.STERADIAN.)
SOLID_ANGLE_UNIT()
);
#754=SHAPE_DEFINITION_REPRESENTATION(#755,#756);
#755=PRODUCT_DEFINITION_SHAPE('',$,#758);
#756=SHAPE_REPRESENTATION('',(#446),#748);
#757=PRODUCT_DEFINITION_CONTEXT('part definition',#762,'design');
#758=PRODUCT_DEFINITION('Bush','Bush',#759,#757);
#759=PRODUCT_DEFINITION_FORMATION('',$,#764);
#760=PRODUCT_RELATED_PRODUCT_CATEGORY('Bush','Bush',(#764));
#761=APPLICATION_PROTOCOL_DEFINITION('international standard',
'automotive_design',2009,#762);
#762=APPLICATION_CONTEXT(
'Core Data for Automotive Mechanical Design Process');
#763=PRODUCT_CONTEXT('part definition',#762,'mechanical');
#764=PRODUCT('Bush','Bush',$,(#763));
#765=PRESENTATION_STYLE_ASSIGNMENT((#766));
#766=SURFACE_STYLE_USAGE(.BOTH.,#769);
#767=SURFACE_STYLE_RENDERING_WITH_PROPERTIES($,#773,(#768));
#768=SURFACE_STYLE_TRANSPARENT(0.);
#769=SURFACE_SIDE_STYLE('',(#770,#767));
#770=SURFACE_STYLE_FILL_AREA(#771);
#771=FILL_AREA_STYLE('',(#772));
#772=FILL_AREA_STYLE_COLOUR('',#773);
#773=COLOUR_RGB('',0.737254901960784,0.313725490196078,0.184313725490196);
ENDSEC;
END-ISO-10303-21;
